<?xml version="1.0" encoding="UTF-8"?>
<svg xmlns="http://www.w3.org/2000/svg" version="1.1" viewBox="0 0 120 85.7">
  <!-- Generator: Adobe Illustrator 28.7.2, SVG Export Plug-In . SVG Version: 1.2.0 Build 154)  -->
  <g>
    <g id="Graphic_Element">
      <path d="M95.2,8.9H24.8c-5.9,0-10.8,4.8-10.8,10.8v46.4c0,5.9,4.8,10.8,10.8,10.8h70.5c5.9,0,10.8-4.8,10.8-10.8V19.7c0-5.9-4.8-10.8-10.8-10.8ZM24.8,13.9h70.5c2.1,0,3.9,1.1,4.9,2.8l-36,26.1c-2.3,1.7-5.4,1.7-7.6,0L19.9,16.6c1-1.6,2.8-2.8,4.9-2.8ZM19,22.1l24.7,17.6-24.7,24.7V22.1ZM95.2,71.8H24.8c-1.7,0-3.2-.7-4.2-1.9l27.3-27.3,5.9,4.2c2,1.4,4.4,2.2,6.7,2.2s4.8-.7,6.8-2.2l5.3-3.9,27,27c-1.1,1.1-2.6,1.9-4.2,1.9ZM101,64.4l-24.5-24.5,24.5-17.8v42.3Z"/>
    </g>
  </g>
</svg>